<svg xmlns="http://www.w3.org/2000/svg" viewBox="0 0 600 600" width="120" height="120">
  <defs>
    <linearGradient id="g" x1="0" x2="1" y1="0" y2="1">
      <stop offset="0%" stop-color="#6EE7B7" stop-opacity="0.95" />
      <stop offset="100%" stop-color="#60A5FA" stop-opacity="0.9" />
    </linearGradient>
  </defs>
  <rect width="100%" height="100%" fill="none" />
  <g fill="url(#g)" opacity="0.98">
    <path d="M120 420c40-120 200-160 300-120s160 140 100 200-240 40-320-40-120-40-80-40z" />
    <path d="M60 320c30-90 160-120 240-90s140 110 100 150-200 20-260-40-80-30-80-20z" opacity="0.85"/>
  </g>
  <g fill="#0f172a" fill-opacity="0.06">
    <circle cx="480" cy="120" r="60" />
    <circle cx="80" cy="80" r="40" />
  </g>
  <g transform="translate(40,360) scale(0.5)">
    <rect x="0" y="0" width="200" height="120" rx="10" fill="#ffffff" fill-opacity="0.04" stroke="#8b5cf6" stroke-opacity="0.12" />
    <rect x="18" y="28" width="60" height="8" rx="4" fill="#fff" fill-opacity="0.12"/>
    <rect x="18" y="48" width="120" height="8" rx="4" fill="#fff" fill-opacity="0.08"/>
  </g>
</svg>